<svg id="visual" viewBox="0 0 900 600" width="900" height="600" xmlns="http://www.w3.org/2000/svg" xmlns:xlink="http://www.w3.org/1999/xlink" version="1.1"><rect x="0" y="0" width="900" height="600" fill="#ffffff"></rect><path d="M0 424L21.5 425.7C43 427.3 86 430.7 128.8 420.5C171.7 410.3 214.3 386.7 257.2 382.8C300 379 343 395 385.8 396.5C428.7 398 471.3 385 514.2 378C557 371 600 370 642.8 373.3C685.7 376.7 728.3 384.3 771.2 384.5C814 384.7 857 377.3 878.5 373.7L900 370L900 601L878.5 601C857 601 814 601 771.2 601C728.3 601 685.7 601 642.8 601C600 601 557 601 514.2 601C471.3 601 428.7 601 385.8 601C343 601 300 601 257.2 601C214.3 601 171.7 601 128.8 601C86 601 43 601 21.5 601L0 601Z" fill="#c169fa"></path><path d="M0 474L21.5 463.2C43 452.3 86 430.7 128.8 425.3C171.7 420 214.3 431 257.2 430.3C300 429.7 343 417.3 385.8 419.8C428.7 422.3 471.3 439.7 514.2 439.2C557 438.7 600 420.3 642.8 411.5C685.7 402.7 728.3 403.3 771.2 414.7C814 426 857 448 878.5 459L900 470L900 601L878.5 601C857 601 814 601 771.2 601C728.3 601 685.7 601 642.8 601C600 601 557 601 514.2 601C471.3 601 428.7 601 385.8 601C343 601 300 601 257.2 601C214.3 601 171.7 601 128.8 601C86 601 43 601 21.5 601L0 601Z" fill="#a25aee"></path><path d="M0 492L21.5 488.7C43 485.3 86 478.7 128.8 481.5C171.7 484.3 214.3 496.7 257.2 498.7C300 500.7 343 492.3 385.8 485C428.7 477.7 471.3 471.3 514.2 472.7C557 474 600 483 642.8 484.3C685.7 485.7 728.3 479.3 771.2 480.5C814 481.7 857 490.3 878.5 494.7L900 499L900 601L878.5 601C857 601 814 601 771.2 601C728.3 601 685.7 601 642.8 601C600 601 557 601 514.2 601C471.3 601 428.7 601 385.8 601C343 601 300 601 257.2 601C214.3 601 171.7 601 128.8 601C86 601 43 601 21.5 601L0 601Z" fill="#804ce1"></path><path d="M0 486L21.5 488.8C43 491.7 86 497.3 128.8 505.3C171.7 513.3 214.3 523.7 257.2 523.2C300 522.7 343 511.3 385.8 506.2C428.7 501 471.3 502 514.2 505.5C557 509 600 515 642.8 521.7C685.7 528.3 728.3 535.7 771.2 532.3C814 529 857 515 878.5 508L900 501L900 601L878.5 601C857 601 814 601 771.2 601C728.3 601 685.7 601 642.8 601C600 601 557 601 514.2 601C471.3 601 428.7 601 385.8 601C343 601 300 601 257.2 601C214.3 601 171.7 601 128.8 601C86 601 43 601 21.5 601L0 601Z" fill="#5a3fd4"></path><path d="M0 552L21.5 548.3C43 544.7 86 537.3 128.8 537.3C171.7 537.3 214.3 544.7 257.2 548.5C300 552.3 343 552.7 385.8 549.7C428.7 546.7 471.3 540.3 514.2 539.7C557 539 600 544 642.8 548.5C685.7 553 728.3 557 771.2 555.2C814 553.3 857 545.7 878.5 541.8L900 538L900 601L878.5 601C857 601 814 601 771.2 601C728.3 601 685.7 601 642.8 601C600 601 557 601 514.2 601C471.3 601 428.7 601 385.8 601C343 601 300 601 257.2 601C214.3 601 171.7 601 128.8 601C86 601 43 601 21.5 601L0 601Z" fill="#2433c7"></path></svg>